<svg width="1027" height="1028" viewBox="0 0 1027 1028" fill="none" xmlns="http://www.w3.org/2000/svg">
<ellipse cx="512.643" cy="557.014" rx="276" ry="353.5" transform="rotate(-0.169705 512.643 557.014)" fill="#101020"/>
<path d="M453.58 704.69L344.66 892.513L106.753 512.254C259.106 638.957 305.931 533.69 342.404 131.016L424.007 511.314L453.58 704.69Z" fill="#FF6B00"/>
<path d="M453.58 704.69L344.66 892.513L106.753 512.254C259.106 638.957 305.931 533.69 342.404 131.016L424.007 511.314L453.58 704.69Z" fill="#FF6B00"/>
<path d="M106.753 512.254C259.106 638.957 305.931 533.69 342.404 131.016L424.007 511.314L453.58 704.69L344.66 892.513L106.753 512.254Z" stroke="#F6950D" stroke-linecap="square"/>
<path d="M625.497 676.18L516.576 864.004L278.669 483.745C431.022 610.448 477.847 505.18 514.32 102.507L595.924 482.805L625.497 676.18Z" fill="#FF6B00"/>
<path d="M625.497 676.18L516.576 864.004L278.669 483.745C431.022 610.448 477.847 505.18 514.32 102.507L595.924 482.805L625.497 676.18Z" fill="#FF6B00"/>
<path d="M278.669 483.745C431.022 610.448 477.847 505.18 514.32 102.507L595.924 482.805L625.497 676.18L516.576 864.004L278.669 483.745Z" stroke="#F6950D" stroke-linecap="square"/>
<path d="M686.592 864.469L796.017 675.776L795.99 675.601L766.418 482.226L766.415 482.211L766.411 482.196L684.808 101.899L683.821 101.958C674.704 202.622 664.94 284.685 653.045 349.177C641.148 413.68 627.126 460.559 609.516 490.888C600.715 506.047 591.03 517.046 580.292 524.05C569.561 531.049 557.753 534.074 544.665 533.252C518.45 531.606 487.064 514.521 448.989 482.856L448.245 483.506L686.592 864.469ZM450.728 485.591C487.768 516.025 518.603 532.618 544.603 534.251C557.898 535.086 569.921 532.008 580.839 524.888C591.748 517.773 601.529 506.637 610.382 491.39C628.082 460.905 642.127 413.884 654.028 349.358C665.803 285.52 675.484 204.5 684.518 105.317L765.431 482.393L794.975 675.579L686.558 862.532L450.728 485.591Z" fill="#F6950D"/>
<path d="M339.801 104.024C362.425 103.957 380.342 118.009 380.392 134.904C380.442 151.799 362.609 165.957 339.984 166.024C317.36 166.091 299.443 152.038 299.393 135.144C299.343 118.249 317.176 104.091 339.801 104.024Z" fill="#2A1212" stroke="#BAB1B1" stroke-width="2"/>
<path d="M511.788 99.5146C534.413 99.4476 552.33 113.5 552.38 130.395C552.43 147.289 534.596 161.447 511.972 161.514C489.347 161.581 471.43 147.529 471.38 130.634C471.33 113.74 489.163 99.5816 511.788 99.5146Z" fill="#2A1212" stroke="#BAB1B1" stroke-width="2"/>
<path d="M681.799 103.011C704.424 102.944 722.341 116.996 722.391 133.891C722.441 150.786 704.608 164.944 681.983 165.011C659.358 165.078 641.441 151.025 641.391 134.131C641.341 117.236 659.174 103.078 681.799 103.011Z" fill="#2A1212" stroke="#BAB1B1" stroke-width="2"/>
<path d="M573.099 704.262L683.006 891.511L918.91 510.006C767.226 637.508 719.848 532.489 681.259 130.013L601.655 510.734L573.099 704.262Z" fill="#FF6B00"/>
<path d="M573.099 704.262L683.006 891.511L918.91 510.006C767.226 637.508 719.848 532.489 681.259 130.013L601.655 510.734L573.099 704.262Z" fill="#FF6B00"/>
</svg>
