<svg width="1034" height="1035" viewBox="0 0 1034 1035" fill="none" xmlns="http://www.w3.org/2000/svg">
<g clip-path="url(#clip0_2005_3)">
<ellipse cx="516.642" cy="560.697" rx="276" ry="353.5" transform="rotate(-0.582393 516.642 560.697)" fill="#101020"/>
<path d="M458.644 708.795L351.079 897.398L110.44 518.862C263.701 644.464 309.767 538.863 343.339 135.937L427.679 515.637L458.644 708.795Z" fill="#FF6B00"/>
<path d="M458.644 708.795L351.079 897.398L110.44 518.862C263.701 644.464 309.767 538.863 343.339 135.937L427.679 515.637L458.644 708.795Z" fill="#FF6B00"/>
<path d="M630.351 679.048L522.785 867.651L282.146 489.115C435.407 614.717 481.473 509.116 515.045 106.19L599.386 485.89L630.351 679.048Z" fill="#FF6B00"/>
<path d="M630.351 679.048L522.785 867.651L282.146 489.115C435.407 614.717 481.473 509.116 515.045 106.19L599.386 485.89L630.351 679.048Z" fill="#FF6B00"/>
<path d="M309.858 139.653C310.084 117.029 324.367 99.2955 341.261 99.4644C358.155 99.6333 372.081 117.649 371.855 140.272C371.628 162.896 357.345 180.629 340.451 180.46C323.557 180.292 309.632 162.276 309.858 139.653Z" fill="#2A1212" stroke="#BAB1B1" stroke-width="2"/>
<path d="M481.695 133.435C481.954 110.812 496.263 93.0997 513.157 93.2934C530.051 93.4871 543.95 111.523 543.691 134.146C543.431 156.77 529.122 174.482 512.228 174.288C495.335 174.094 481.435 156.059 481.695 133.435Z" fill="#2A1212" stroke="#BAB1B1" stroke-width="2"/>
<path d="M578.157 707.507L689.409 893.958L922.56 510.765C771.798 639.356 723.664 534.68 682.177 132.493L605.318 513.778L578.157 707.507Z" fill="#FF6B00"/>
<path d="M578.157 707.507L689.409 893.958L922.56 510.765C771.798 639.356 723.664 534.68 682.177 132.493L605.318 513.778L578.157 707.507Z" fill="#FF6B00"/>
<path d="M651.849 137.299C651.256 114.682 664.888 96.4431 681.777 96.0001C698.665 95.5571 713.235 113.056 713.828 135.673C714.421 158.29 700.789 176.529 683.9 176.972C667.012 177.415 652.442 159.916 651.849 137.299Z" fill="#2A1212" stroke="#BAB1B1" stroke-width="2"/>
</g>
<defs>
<clipPath id="clip0_2005_3">
<rect width="1023" height="1024" fill="white" transform="translate(0.0217285 10.4201) rotate(-0.582393)"/>
</clipPath>
</defs>
</svg>
